<svg width="64" height="64" viewBox="0 0 64 64" fill="none" xmlns="http://www.w3.org/2000/svg">
<g clip-path="url(#clip0_21_335)">
<path d="M32 42.625C37.8586 42.625 42.625 37.8586 42.625 32C42.625 30.9645 41.7855 30.125 40.75 30.125C36.9591 30.125 33.875 27.0409 33.875 23.25C33.875 22.2145 33.0355 21.375 32 21.375C26.1414 21.375 21.375 26.1414 21.375 32C21.375 37.8586 26.1414 42.625 32 42.625ZM30.3295 25.3302C31.1651 29.5239 34.4763 32.835 38.6699 33.6706C37.9216 36.6569 35.215 38.875 32 38.875C28.2091 38.875 25.125 35.7909 25.125 32C25.125 28.785 27.3431 26.0784 30.3295 25.3302Z" fill="#0094DA"/>
<path d="M63.5677 33.1975C64.144 32.5031 64.144 31.4969 63.5677 30.8025C63.4244 30.6296 59.989 26.52 54.422 22.3716C51.1362 19.923 47.7833 17.9684 44.456 16.562C40.2379 14.779 36.0471 13.875 32 13.875C27.9529 13.875 23.7621 14.779 19.544 16.562C16.2169 17.9684 12.8639 19.923 9.578 22.3716C4.011 26.52 0.575624 30.6296 0.432249 30.8025C-0.144001 31.4969 -0.144001 32.5031 0.432249 33.1975C0.575624 33.3704 4.011 37.48 9.578 41.6284C12.8637 44.077 16.2167 46.0316 19.544 47.438C23.7621 49.221 27.9529 50.125 32 50.125C36.0471 50.125 40.2379 49.221 44.456 47.438C47.7831 46.0316 51.1361 44.077 54.422 41.6284C59.989 37.48 63.4244 33.3704 63.5677 33.1975ZM59.6046 31.9993C57.6385 34.0924 53.1188 38.5147 47.1693 41.9051C49.0366 39.0564 50.125 35.6535 50.125 32C50.125 28.3486 49.0384 24.9471 47.1731 22.0991C49.0199 23.1471 50.6836 24.2663 52.1094 25.325C55.5933 27.9123 58.2256 30.5288 59.6046 31.9993ZM32 17.625C39.9264 17.625 46.375 24.0736 46.375 32C46.375 39.9264 39.9264 46.375 32 46.375C24.0736 46.375 17.625 39.9264 17.625 32C17.625 24.0736 24.0736 17.625 32 17.625ZM4.39537 32.0008C6.36125 29.908 10.88 25.4865 16.8282 22.0961C14.962 24.9447 13.875 28.3475 13.875 32C13.875 35.651 14.9606 39.053 16.8254 41.901C14.9787 40.8531 13.3162 39.7336 11.8905 38.6749C8.4065 36.0875 5.774 33.4709 4.39537 32.0008Z" fill="#0094DA"/>
<path d="M1.875 11.25C2.9105 11.25 3.75 10.4105 3.75 9.375V6.40163L11.7992 14.4509C12.1652 14.8169 12.6451 15 13.125 15C13.6049 15 14.0848 14.8169 14.4508 14.4508C15.183 13.7186 15.183 12.5314 14.4508 11.7991L6.40163 3.75H9.375C10.4105 3.75 11.25 2.9105 11.25 1.875C11.25 0.8395 10.4105 0 9.375 0H1.875C0.8395 0 0 0.8395 0 1.875V9.375C0 10.4105 0.8395 11.25 1.875 11.25Z" fill="#0094DA"/>
<path d="M62.125 0H54.625C53.5895 0 52.75 0.8395 52.75 1.875C52.75 2.9105 53.5895 3.75 54.625 3.75H57.5984L49.5491 11.7992C48.8169 12.5314 48.8169 13.7186 49.5491 14.4509C49.9153 14.8169 50.3951 15 50.875 15C51.3549 15 51.8347 14.8169 52.2007 14.4508L60.25 6.40163V9.375C60.25 10.4105 61.0895 11.25 62.125 11.25C63.1605 11.25 64 10.4105 64 9.375V1.875C64 0.8395 63.1605 0 62.125 0Z" fill="#0094DA"/>
<path d="M62.125 52.75C61.0895 52.75 60.25 53.5895 60.25 54.625V57.5984L52.2007 49.5491C51.4686 48.817 50.2814 48.817 49.5491 49.5491C48.8169 50.2812 48.8169 51.4685 49.5491 52.2007L57.5984 60.25H54.625C53.5895 60.25 52.75 61.0895 52.75 62.125C52.75 63.1605 53.5895 64 54.625 64H62.125C63.1605 64 64 63.1605 64 62.125V54.625C64 53.5895 63.1605 52.75 62.125 52.75Z" fill="#0094DA"/>
<path d="M11.7992 49.5492L3.75 57.5984V54.625C3.75 53.5895 2.9105 52.75 1.875 52.75C0.8395 52.75 0 53.5895 0 54.625V62.125C0 63.1605 0.8395 64 1.875 64H9.375C10.4105 64 11.25 63.1605 11.25 62.125C11.25 61.0895 10.4105 60.25 9.375 60.25H6.40163L14.4509 52.2007C15.1831 51.4686 15.1831 50.2814 14.4509 49.5491C13.7186 48.817 12.5314 48.817 11.7992 49.5492Z" fill="#0094DA"/>
</g>
<defs>
<clipPath id="clip0_21_335">
<rect width="64" height="64" fill="white"/>
</clipPath>
</defs>
</svg>
