<svg width="28" height="28" viewBox="0 0 28 28" fill="none" xmlns="http://www.w3.org/2000/svg">
<g clip-path="url(#clip0_303_118)">
<path d="M0 14C0 17.713 1.475 21.274 4.1005 23.8995C6.72601 26.525 10.287 28 14 28C17.713 28 21.274 26.525 23.8995 23.8995C26.525 21.274 28 17.713 28 14C28 10.287 26.525 6.72601 23.8995 4.10051C21.274 1.475 17.713 0 14 0C10.287 0 6.72601 1.475 4.1005 4.10051C1.475 6.72601 0 10.287 0 14V14ZM13.125 7.875C13.125 7.64294 13.2172 7.42038 13.3813 7.25628C13.5454 7.09219 13.7679 7 14 7C14.2321 7 14.4546 7.09219 14.6187 7.25628C14.7828 7.42038 14.875 7.64294 14.875 7.875V18.0128L18.6305 14.2555C18.7948 14.0912 19.0176 13.9989 19.25 13.9989C19.4824 13.9989 19.7052 14.0912 19.8695 14.2555C20.0338 14.4198 20.1261 14.6426 20.1261 14.875C20.1261 15.1074 20.0338 15.3302 19.8695 15.4945L14.6195 20.7445C14.5382 20.826 14.4417 20.8906 14.3354 20.9347C14.2291 20.9789 14.1151 21.0016 14 21.0016C13.8849 21.0016 13.7709 20.9789 13.6646 20.9347C13.5583 20.8906 13.4618 20.826 13.3805 20.7445L8.1305 15.4945C7.9662 15.3302 7.8739 15.1074 7.8739 14.875C7.8739 14.6426 7.9662 14.4198 8.1305 14.2555C8.2948 14.0912 8.51764 13.9989 8.75 13.9989C8.98236 13.9989 9.2052 14.0912 9.3695 14.2555L13.125 18.0128V7.875Z" fill="white"/>
</g>
<defs>
<clipPath id="clip0_303_118">
<rect width="28" height="28" fill="white" transform="translate(28 28) rotate(-180)"/>
</clipPath>
</defs>
</svg>
